<svg id="Camada_1" data-name="Camada 1" xmlns="http://www.w3.org/2000/svg" xmlns:xlink="http://www.w3.org/1999/xlink" viewBox="0 0 40 40"><defs><style>.cls-1,.cls-3,.cls-5{fill:none;}.cls-2{clip-path:url(#clip-path);}.cls-3,.cls-5{stroke:#c8d300;stroke-width:2px;}.cls-3{stroke-linecap:round;stroke-linejoin:round;}.cls-4{fill:#ecf0a6;}</style><clipPath id="clip-path"><rect class="cls-1" x="0.36" y="0.77" width="39.29" height="38.45"/></clipPath></defs><g class="cls-2"><g id="Grupo_505" data-name="Grupo 505"><g id="Grupo_503" data-name="Grupo 503"><path id="Caminho_823" data-name="Caminho 823" class="cls-3" d="M5.36,9H1.17V3.69s.5-2.1,2.1-2.1S5.65,4,5.65,4V36.6a1.63,1.63,0,0,0,1.46,1.8h.34c2,0,1.71-1.71,1.71-1.71V31.08H32.85V37s-.17,1.42-2.47,1.42h-23"/></g><g id="Grupo_504" data-name="Grupo 504"><path id="Caminho_824" data-name="Caminho 824" class="cls-3" d="M3.17,1.59h23s2.3.14,2.3,2.3V30.7"/></g></g></g><g id="Grupo_506" data-name="Grupo 506"><path id="Caminho_826" data-name="Caminho 826" class="cls-3" d="M10.19,11.2H24.27"/></g><g id="Grupo_507" data-name="Grupo 507"><path id="Caminho_827" data-name="Caminho 827" class="cls-3" d="M10.19,7.4H24.27"/></g><g id="Grupo_508" data-name="Grupo 508"><path id="Caminho_828" data-name="Caminho 828" class="cls-3" d="M10.19,15H24.27"/></g><g id="Grupo_509" data-name="Grupo 509"><path id="Caminho_829" data-name="Caminho 829" class="cls-3" d="M10.19,18.81H24.27"/></g><g id="Grupo_510" data-name="Grupo 510"><path id="Caminho_830" data-name="Caminho 830" class="cls-3" d="M10.19,22.61h6.37"/></g><g id="Grupo_511" data-name="Grupo 511"><path id="Caminho_831" data-name="Caminho 831" class="cls-3" d="M10.19,26.41h6.15"/></g><rect class="cls-1" x="0.36" y="0.77" width="39.29" height="38.45"/><g id="Grupo_514" data-name="Grupo 514"><g id="Grupo_512" data-name="Grupo 512"><path id="Caminho_832" data-name="Caminho 832" class="cls-4" d="M31.17,11.21a4.34,4.34,0,0,1,6.13-.44,4.57,4.57,0,0,1,.44.44C40.56,14,37,16.68,37,16.68l-12.4,6.8Z"/></g><g id="Grupo_513" data-name="Grupo 513"><path id="Caminho_833" data-name="Caminho 833" class="cls-5" d="M31.17,11.21a4.34,4.34,0,0,1,6.13-.44,4.57,4.57,0,0,1,.44.44C40.56,14,37,16.68,37,16.68l-12.4,6.8Z"/></g></g><g id="Grupo_515" data-name="Grupo 515"><path id="Caminho_835" data-name="Caminho 835" class="cls-3" d="M21.53,27.09l3.32-3.42,9.92-10.36"/></g></svg>